{
	"asset":{
		"generator":"Khronos glTF Blender I/O v4.1.63",
		"version":"2.0"
	},
	"scene":0,
	"scenes":[
		{
			"name":"Scene",
			"nodes":[
				0
			]
		}
	],
	"nodes":[
		{
			"mesh":0,
			"name":"Sphere",
			"scale":[
				500,
				500,
				500
			]
		}
	],
	"materials":[
		{
			"doubleSided":true,
			"name":"Material.004",
			"pbrMetallicRoughness":{
				"baseColorTexture":{
					"index":0
				},
				"metallicFactor":0,
				"roughnessFactor":0.5
			}
		}
	],
	"meshes":[
		{
			"name":"Sphere.003",
			"primitives":[
				{
					"attributes":{
						"POSITION":0,
						"NORMAL":1,
						"TEXCOORD_0":2
					},
					"indices":3,
					"material":0
				}
			]
		}
	],
	"textures":[
		{
			"sampler":0,
			"source":0
		}
	],
	"images":[
		{
			"mimeType":"image/png",
			"name":"skybox",
			"uri":"skybox.png"
		}
	],
	"accessors":[
		{
			"bufferView":0,
			"componentType":5126,
			"count":2143,
			"max":[
				0.9999998807907104,
				1,
				0.9999997615814209
			],
			"min":[
				-0.9999997019767761,
				-1,
				-1
			],
			"type":"VEC3"
		},
		{
			"bufferView":1,
			"componentType":5126,
			"count":2143,
			"type":"VEC3"
		},
		{
			"bufferView":2,
			"componentType":5126,
			"count":2143,
			"type":"VEC2"
		},
		{
			"bufferView":3,
			"componentType":5123,
			"count":11904,
			"type":"SCALAR"
		}
	],
	"bufferViews":[
		{
			"buffer":0,
			"byteLength":25716,
			"byteOffset":0,
			"target":34962
		},
		{
			"buffer":0,
			"byteLength":25716,
			"byteOffset":25716,
			"target":34962
		},
		{
			"buffer":0,
			"byteLength":17144,
			"byteOffset":51432,
			"target":34962
		},
		{
			"buffer":0,
			"byteLength":23808,
			"byteOffset":68576,
			"target":34963
		}
	],
	"samplers":[
		{
			"magFilter":9729,
			"minFilter":9987
		}
	],
	"buffers":[
		{
			"byteLength":92384,
			"uri":"skybox.bin"
		}
	]
}
